<svg width="1782" height="600" viewBox="0 0 1782 600" fill="none" xmlns="http://www.w3.org/2000/svg">
<path fill-rule="evenodd" clip-rule="evenodd" d="M713.346 1.20166C597.09 9.04162 528.371 67.6088 509.318 175.103L507.484 185.453H571.686C634.865 185.453 635.893 185.439 635.893 184.628C635.893 180.789 639.58 166.245 642.326 159.254C655.588 125.458 686.398 106.171 724.978 107.508C767.582 108.985 786.998 134.95 774.098 173.203C763.244 205.384 737.371 222.922 657.836 252.001C610.507 269.306 592.612 277.342 567.921 292.38C488.025 341.043 452.308 416.854 472.224 495.485C498.768 600.317 630.343 635.115 712.199 558.971C715.547 555.857 715.852 555.665 715.6 556.831C715.055 559.406 708.929 598.466 708.929 599.427H834.628L836.364 588.452C837.639 580.086 851.103 493.986 882.044 296.372C900.643 177.576 900.315 179.94 900.788 160.098C903.375 51 834.955 -6.99962 713.346 1.20166ZM749.547 338.397C750.773 330.186 752.274 320.417 752.877 316.693C753.481 312.967 753.915 309.884 753.848 309.842C753.78 309.8 752.337 311.128 750.648 312.794C741.093 322.215 729.432 329.267 695.794 345.978C648.518 369.461 637.677 375.919 622.215 389.833C585.701 422.671 588.433 476.612 627.147 487.054C665.66 497.445 704.857 473.37 727.821 425.208C738.085 403.696 742.314 386.796 749.547 338.397Z" fill="#00847E"/>
<path fill-rule="evenodd" clip-rule="evenodd" d="M280.635 0.559544C163.57 9.30657 69.5111 78.8497 24.8688 189.655C-2.26792 257.006 -7.72992 349.808 11.1199 423.164C51.6812 581.012 205.907 644.152 362.461 566.996C381.267 557.719 400.159 546.457 406.786 540.551L408.957 538.616L410.428 529.237C411.233 524.074 415.641 495.464 420.211 465.637C424.789 435.822 428.729 410.262 428.97 408.827C429.875 403.458 430.058 403.394 421.43 411.466C380.016 450.211 331.557 476.066 282.387 485.675C193.568 503.036 134.913 461.076 130.119 376.77C129.596 367.468 129.543 352.734 130.033 352.734C130.235 352.734 131.632 353.221 133.132 353.81C155.821 362.804 215.498 362.689 264.663 353.554C391.377 330.01 466.899 254.1 466.808 150.379C466.736 67.6529 411.56 10.8786 321.764 1.15145C314.335 0.348108 288.454 -0.0272636 280.635 0.559544ZM293.209 108.366C330.479 113.939 348.872 151.529 331.134 185.89C304.387 237.707 223.49 265.528 148.877 248.565C136.4 245.73 136.953 246.312 138.883 238.082C155.576 166.777 235.353 99.7223 293.209 108.366Z" fill="#00847E"/>
<path d="M996.677 0.273755H1004.85C1049.67 -0.366358 1362.89 0.316772 1362.89 0.316772C1362.89 0.316772 1361.97 5.09172 1352.52 64.3137L1345.83 106.347L1204.39 296.79C1126.6 401.527 1063.85 489.342 1063.85 489.342L1283.92 489.294C1283.92 489.294 1269.9 576.869 1267.79 594.479L1267.18 599.427H900.458L901.135 595.729C901.286 594.964 904.685 573.886 908.69 548.906L918.613 489.342C918.613 489.342 946.621 447.789 1044.44 305.356C1094.79 232.05 1159.76 137.376 1172.97 118.058C1177.03 112.107 1180.27 107.136 1180.15 107.015C1180.01 106.894 1134.94 106.698 1079.99 106.58C1025.03 106.464 979.43 106.75 979.43 106.75C979.43 106.75 990.876 33.7706 995.659 5.37614L996.677 0.273755Z" fill="#00847E"/>
<path d="M1332.53 599.427L1428.02 0.273667L1554.96 0.273659L1541.31 92.0729C1585.09 28.9973 1656.59 1.42987 1748.05 0.273667C1757.24 0.273667 1767.17 0.659053 1777.85 1.42987C1779.32 1.50065 1780.7 1.58726 1782 1.68735L1762.43 127.32C1648.14 100.499 1530.39 179.007 1512.65 279.975L1462.34 599.427H1332.53Z" fill="#00847E"/>
</svg>
