<svg width="665" height="600" viewBox="0 0 665 600" fill="none" xmlns="http://www.w3.org/2000/svg">
<path d="M614.775 213.984C615.457 214.34 616.134 214.704 616.807 215.076C617.479 215.449 618.147 215.829 618.81 216.218C619.474 216.607 620.132 217.004 620.785 217.41C621.438 217.815 622.086 218.228 622.729 218.649C623.373 219.071 624.011 219.5 624.643 219.937C625.275 220.374 625.902 220.82 626.523 221.273C627.144 221.726 627.76 222.186 628.37 222.654C628.98 223.122 629.584 223.598 630.181 224.081C630.779 224.564 631.371 225.054 631.957 225.552C632.543 226.05 633.123 226.556 633.695 227.068C634.269 227.58 634.835 228.1 635.395 228.626C635.955 229.152 636.509 229.685 637.056 230.226C637.603 230.766 638.144 231.313 638.677 231.866C639.21 232.42 639.736 232.98 640.256 233.547C640.776 234.114 641.288 234.687 641.793 235.266C642.299 235.845 642.797 236.431 643.287 237.023C643.778 237.614 644.261 238.212 644.737 238.816C645.212 239.42 645.68 240.029 646.141 240.645C646.602 241.26 647.055 241.881 647.5 242.508C647.945 243.134 648.383 243.766 648.812 244.404C649.241 245.041 649.662 245.684 650.076 246.332C650.489 246.98 650.894 247.633 651.291 248.291C651.689 248.949 652.078 249.612 652.459 250.28C652.839 250.948 653.211 251.62 653.575 252.298C653.939 252.974 654.294 253.656 654.642 254.342C654.988 255.027 655.327 255.718 655.656 256.412C655.986 257.106 656.307 257.804 656.62 258.507C656.932 259.209 657.235 259.915 657.53 260.625C657.826 261.334 658.112 262.047 658.389 262.764C658.666 263.481 658.934 264.201 659.193 264.925C659.452 265.648 659.702 266.375 659.943 267.105C660.184 267.835 660.416 268.567 660.639 269.303C660.88 270.084 661.111 270.867 661.332 271.654C661.553 272.441 661.764 273.23 661.966 274.021C662.168 274.814 662.359 275.608 662.541 276.405C662.723 277.201 662.895 278 663.056 278.802C663.218 279.602 663.37 280.405 663.511 281.21C663.653 282.015 663.785 282.821 663.907 283.63C664.028 284.437 664.14 285.247 664.24 286.058C664.342 286.868 664.434 287.68 664.515 288.494C664.596 289.307 664.666 290.121 664.728 290.936C664.788 291.75 664.839 292.566 664.879 293.382C664.92 294.198 664.95 295.015 664.97 295.832C664.99 296.649 665 297.465 665 298.282C665 299.099 664.989 299.917 664.969 300.734C664.948 301.551 664.917 302.367 664.876 303.183C664.835 303.999 664.783 304.814 664.722 305.629C664.661 306.444 664.589 307.258 664.507 308.071C664.425 308.884 664.334 309.696 664.232 310.506C664.13 311.317 664.018 312.126 663.895 312.934C663.773 313.742 663.641 314.549 663.499 315.353C663.356 316.158 663.204 316.961 663.041 317.762C662.88 318.563 662.707 319.362 662.525 320.158C662.343 320.955 662.15 321.749 661.948 322.54C661.746 323.332 661.534 324.121 661.312 324.907C661.091 325.694 660.859 326.478 660.618 327.259C660.376 328.04 660.125 328.817 659.865 329.591C659.604 330.366 659.334 331.137 659.054 331.904C658.773 332.672 658.484 333.436 658.185 334.197C657.886 334.958 657.577 335.714 657.259 336.467C656.941 337.219 656.614 337.968 656.277 338.713C655.941 339.458 655.595 340.198 655.24 340.934C654.884 341.67 654.52 342.402 654.147 343.129C653.774 343.856 653.391 344.578 653 345.295C652.336 346.51 651.648 347.711 650.934 348.897C650.221 350.084 649.483 351.255 648.722 352.411C647.96 353.566 647.175 354.706 646.365 355.829C645.556 356.953 644.724 358.059 643.869 359.147C643.014 360.237 642.137 361.307 641.237 362.359C640.338 363.412 639.417 364.445 638.474 365.46C637.532 366.474 636.569 367.468 635.585 368.443C634.602 369.417 633.599 370.371 632.576 371.303C631.552 372.237 630.51 373.148 629.449 374.037C628.389 374.927 627.31 375.795 626.212 376.64C625.116 377.484 624.002 378.306 622.871 379.105C621.74 379.904 620.593 380.679 619.429 381.43C618.266 382.181 617.088 382.908 615.895 383.611C614.702 384.313 613.495 384.991 612.273 385.643C611.051 386.295 609.817 386.922 608.57 387.523C607.322 388.125 606.063 388.7 604.792 389.249L604.792 389.248C603.228 389.903 601.649 390.523 600.057 391.107C598.465 391.69 596.859 392.236 595.242 392.745C593.624 393.255 591.995 393.727 590.355 394.161C588.716 394.595 587.067 394.992 585.41 395.35C583.752 395.708 582.087 396.027 580.414 396.309C578.741 396.59 577.063 396.833 575.379 397.037C573.695 397.241 572.008 397.406 570.316 397.532C568.624 397.658 566.931 397.745 565.236 397.794C518.502 399.328 473.401 372.006 440.376 341.107C401.104 304.364 375.28 254.462 361.936 202.773L361.874 202.53C358.965 191.261 355.695 178.595 355.319 166.971C369.136 186.475 386.115 204.244 408.145 214.418C434.895 226.773 463.548 226.895 491.445 218.466C501.068 215.558 510.525 211.676 519.955 208.187L519.956 208.188C552.483 198.185 584.021 197.654 614.775 213.984Z" fill="#00847E"/>
<path d="M481.122 4.33117C531.751 20.0252 560.064 73.7679 544.361 124.369C528.659 174.97 474.886 203.267 424.257 187.573C373.628 171.879 345.315 118.136 361.018 67.5355C376.721 16.9347 430.493 -11.3629 481.122 4.33117Z" fill="#00847E"/>
<path d="M113.75 102.085C113.704 101.318 113.668 100.55 113.641 99.7818C113.614 99.0136 113.596 98.2455 113.587 97.4772C113.579 96.7087 113.581 95.94 113.593 95.1712C113.604 94.4032 113.624 93.6351 113.655 92.8671C113.685 92.0985 113.724 91.3312 113.774 90.5639C113.823 89.7971 113.882 89.0307 113.951 88.2654C114.019 87.4999 114.097 86.7355 114.184 85.9718C114.272 85.208 114.369 84.4454 114.476 83.6845C114.582 82.9235 114.697 82.1639 114.823 81.4058C114.948 80.647 115.083 79.8901 115.228 79.1356C115.372 78.3803 115.525 77.6273 115.688 76.8769C115.851 76.1259 116.023 75.3768 116.205 74.6297C116.387 73.8826 116.577 73.1379 116.777 72.396C116.978 71.6542 117.187 70.9147 117.405 70.1772C117.624 69.4406 117.851 68.7065 118.088 67.975C118.325 67.2438 118.571 66.5156 118.825 65.7904C119.08 65.0654 119.343 64.3435 119.617 63.6251C119.889 62.9067 120.171 62.1919 120.462 61.4803C120.752 60.7683 121.051 60.0603 121.36 59.3561C121.668 58.6521 121.985 57.952 122.31 57.2557C122.636 56.5598 122.97 55.8678 123.313 55.1797C123.656 54.4921 124.007 53.8086 124.367 53.1294C124.727 52.4501 125.095 51.7753 125.472 51.105C125.849 50.4352 126.234 49.7702 126.627 49.1093C127.02 48.4492 127.421 47.7937 127.831 47.1429C128.24 46.4927 128.658 45.8472 129.084 45.2074C129.509 44.5674 129.942 43.9327 130.384 43.3033C130.825 42.6743 131.275 42.0507 131.731 41.4323C132.188 40.814 132.652 40.2017 133.124 39.5951C133.596 38.9886 134.076 38.3878 134.563 37.7932C135.05 37.1987 135.544 36.6102 136.047 36.0281C136.548 35.4462 137.057 34.8702 137.573 34.3C138.119 33.6917 138.672 33.0901 139.233 32.4953C139.794 31.9005 140.361 31.3132 140.936 30.7331C141.512 30.1522 142.094 29.5792 142.684 29.0132C143.274 28.4471 143.87 27.8884 144.474 27.3372C145.077 26.7862 145.688 26.243 146.305 25.7072C146.922 25.1709 147.546 24.6426 148.177 24.1224C148.807 23.6024 149.444 23.09 150.087 22.5862C150.73 22.0816 151.379 21.5852 152.035 21.0965C152.691 20.6087 153.352 20.1289 154.02 19.6567C154.687 19.1852 155.361 18.7221 156.039 18.267C156.719 17.812 157.403 17.3657 158.093 16.9278C158.784 16.49 159.479 16.061 160.18 15.6404C160.881 15.2199 161.587 14.808 162.298 14.4049C163.009 14.0017 163.725 13.6078 164.446 13.223C165.168 12.838 165.893 12.4623 166.623 12.0956C167.353 11.7282 168.088 11.3705 168.828 11.0219C169.567 10.6736 170.311 10.3339 171.058 10.0037C171.806 9.67386 172.558 9.3531 173.314 9.04189C174.07 8.73068 174.829 8.42876 175.592 8.1359C176.356 7.84379 177.123 7.56106 177.894 7.28774C178.664 7.01383 179.437 6.75025 180.215 6.49663C180.991 6.24242 181.771 5.99822 182.554 5.76423C183.338 5.52941 184.124 5.30493 184.912 5.08995C185.701 4.87452 186.492 4.66937 187.286 4.47409C188.08 4.2791 188.876 4.09387 189.674 3.91857C190.473 3.74312 191.273 3.57751 192.075 3.4222C192.878 3.26674 193.683 3.1215 194.489 2.98632C195.295 2.85039 196.103 2.72527 196.912 2.61067C197.721 2.49547 198.532 2.39041 199.344 2.29549C200.156 2.19997 200.969 2.11506 201.783 2.04004C202.597 1.96599 203.412 1.90125 204.228 1.84658C205.044 1.79184 205.86 1.74757 206.676 1.714C208.06 1.65667 209.444 1.62825 210.829 1.62924C212.214 1.6292 213.598 1.65805 214.982 1.71512C216.365 1.77293 217.747 1.85937 219.127 1.97459C220.507 2.08921 221.884 2.23264 223.258 2.40457C224.632 2.57666 226.002 2.77701 227.367 3.00609C228.733 3.2345 230.094 3.4912 231.449 3.7769C232.804 4.06216 234.153 4.37501 235.495 4.7162C236.837 5.05678 238.172 5.42501 239.498 5.82166C240.825 6.21816 242.143 6.64174 243.452 7.09302C244.762 7.54356 246.061 8.02135 247.351 8.52643C248.64 9.03106 249.919 9.56245 251.186 10.12C252.454 10.6781 253.709 11.2617 254.952 11.8718C256.195 12.4816 257.426 13.1169 258.642 13.7772C259.859 14.4378 261.062 15.1235 262.25 15.8346C263.439 16.5451 264.612 17.2802 265.77 18.0396C266.928 18.7983 268.07 19.5811 269.195 20.388L269.194 20.3886C270.562 21.391 271.906 22.4244 273.226 23.4882C274.546 24.5526 275.841 25.6468 277.111 26.7705C278.381 27.8946 279.625 29.0473 280.841 30.2289C282.058 31.4098 283.247 32.6182 284.407 33.8543C285.568 35.0903 286.7 36.3529 287.802 37.6411C288.905 38.9295 289.977 40.2426 291.02 41.5806C292.062 42.918 293.072 44.2791 294.052 45.6637C295.031 47.0483 295.977 48.4543 296.892 49.8822C322.273 89.1365 322.067 141.852 312.574 186.061C301.287 238.632 271.789 286.456 234.333 324.507L234.157 324.686C225.991 332.981 216.813 342.305 207.038 348.613C216.649 326.731 223.144 303.032 220.525 278.915C217.345 249.632 202.695 225.018 181.101 205.454C173.653 198.707 165.453 192.602 157.606 186.319L157.606 186.317C132.277 163.597 115.582 136.847 113.75 102.085Z" fill="#00847E"/>
<path d="M2.77888 324.567C-9.83318 273.104 21.6759 221.169 73.1564 208.567C124.637 195.966 176.594 227.47 189.206 278.933C201.818 330.397 170.309 382.332 118.829 394.934C67.3482 407.535 15.3909 376.031 2.77888 324.567Z" fill="#00847E"/>
<path d="M268.519 585.358C267.87 585.771 267.216 586.175 266.557 586.571C265.898 586.967 265.235 587.355 264.566 587.735C263.898 588.115 263.224 588.486 262.546 588.849C261.869 589.211 261.187 589.566 260.5 589.912C259.813 590.258 259.123 590.596 258.427 590.924C257.733 591.253 257.033 591.573 256.33 591.884C255.628 592.196 254.921 592.498 254.21 592.792C253.5 593.086 252.786 593.371 252.068 593.647C251.351 593.923 250.63 594.19 249.906 594.448C249.181 594.706 248.454 594.956 247.723 595.195C246.993 595.435 246.259 595.666 245.524 595.888C244.788 596.11 244.049 596.323 243.307 596.526C242.565 596.729 241.821 596.924 241.075 597.109C240.329 597.293 239.581 597.469 238.829 597.635C238.079 597.802 237.326 597.959 236.572 598.106C235.817 598.254 235.061 598.392 234.303 598.521C233.545 598.65 232.786 598.77 232.024 598.879C231.264 598.989 230.502 599.089 229.738 599.18C228.975 599.272 228.21 599.354 227.444 599.426C226.679 599.498 225.913 599.56 225.146 599.613C224.379 599.666 223.611 599.709 222.843 599.743C222.075 599.777 221.307 599.801 220.538 599.816C219.769 599.831 219 599.836 218.231 599.832C217.462 599.827 216.694 599.813 215.925 599.79C215.157 599.766 214.389 599.733 213.621 599.691C212.853 599.648 212.086 599.596 211.32 599.534C210.553 599.473 209.788 599.402 209.023 599.321C208.259 599.24 207.495 599.15 206.733 599.05C205.97 598.951 205.209 598.842 204.45 598.723C203.69 598.605 202.932 598.477 202.176 598.339C201.42 598.202 200.665 598.055 199.912 597.898C199.16 597.742 198.409 597.576 197.66 597.402C196.863 597.22 196.069 597.028 195.276 596.826C194.484 596.624 193.695 596.413 192.908 596.191C192.121 595.97 191.337 595.739 190.556 595.497C189.775 595.257 188.997 595.006 188.222 594.745C187.447 594.485 186.676 594.215 185.907 593.935C185.139 593.655 184.374 593.366 183.613 593.067C182.853 592.768 182.096 592.46 181.343 592.142C180.59 591.825 179.841 591.498 179.095 591.162C178.35 590.825 177.61 590.479 176.873 590.125C176.137 589.77 175.405 589.406 174.678 589.033C173.95 588.66 173.228 588.278 172.51 587.887C171.792 587.496 171.08 587.096 170.372 586.688C169.664 586.278 168.961 585.861 168.264 585.435C167.566 585.008 166.874 584.573 166.188 584.13C165.501 583.686 164.821 583.234 164.146 582.773C163.47 582.313 162.801 581.844 162.137 581.367C161.474 580.889 160.816 580.404 160.165 579.91C159.514 579.417 158.869 578.915 158.23 578.405C157.591 577.895 156.958 577.377 156.332 576.852C155.706 576.326 155.087 575.793 154.474 575.252C153.861 574.712 153.255 574.163 152.657 573.607C152.058 573.051 151.466 572.487 150.881 571.917C150.296 571.345 149.718 570.767 149.148 570.182C148.577 569.597 148.014 569.005 147.458 568.406C146.902 567.806 146.355 567.2 145.814 566.587C145.273 565.974 144.74 565.355 144.215 564.729C143.69 564.102 143.173 563.47 142.664 562.83C142.154 562.191 141.652 561.546 141.16 560.894C140.667 560.242 140.182 559.585 139.705 558.921C139.228 558.257 138.759 557.588 138.299 556.912C137.839 556.237 137.387 555.556 136.944 554.869C136.5 554.182 136.066 553.49 135.641 552.793C134.92 551.611 134.224 550.415 133.553 549.204C132.881 547.993 132.235 546.769 131.614 545.532C130.994 544.295 130.4 543.045 129.831 541.782C129.262 540.52 128.72 539.247 128.204 537.962C127.688 536.677 127.2 535.383 126.738 534.078C126.276 532.774 125.84 531.46 125.433 530.136C125.026 528.814 124.646 527.483 124.293 526.144C123.94 524.806 123.615 523.46 123.319 522.108C123.023 520.756 122.754 519.398 122.514 518.035C122.273 516.672 122.061 515.304 121.878 513.932C121.694 512.56 121.539 511.185 121.412 509.806C121.286 508.428 121.188 507.047 121.119 505.665C121.049 504.282 121.009 502.899 120.997 501.515C120.985 500.131 121.001 498.747 121.047 497.363C121.093 495.98 121.167 494.598 121.27 493.217C121.372 491.837 121.503 490.459 121.664 489.084L121.665 489.085C121.878 487.403 122.131 485.727 122.421 484.057C122.712 482.386 123.042 480.724 123.409 479.069C123.777 477.413 124.182 475.768 124.626 474.131C125.07 472.495 125.55 470.869 126.069 469.255C126.588 467.641 127.144 466.04 127.736 464.451C128.329 462.863 128.957 461.288 129.623 459.729C130.288 458.169 130.988 456.626 131.725 455.098C132.462 453.571 133.233 452.061 134.039 450.569C156.076 409.346 202.298 383.965 245.581 370.826C297.051 355.202 353.197 357.798 404.652 372.091L404.894 372.158C416.111 375.275 428.72 378.777 438.979 384.263C415.173 386.472 391.288 392.287 371.458 406.27C347.379 423.249 332.947 447.992 326.301 476.356C324.009 486.139 322.644 496.268 320.952 506.175L320.951 506.175C313.354 539.335 298.045 566.901 268.519 585.358Z" fill="#00847E"/>
<path d="M516.987 574.487C478.075 610.467 417.356 608.105 381.368 569.212C345.379 530.318 347.749 469.62 386.66 433.64C425.572 397.659 486.291 400.021 522.279 438.915C558.268 477.808 555.898 538.506 516.987 574.487Z" fill="#00847E"/>
</svg>
